<?xml version="1.0" encoding="UTF-8"?>
<svg id="Layer_1" xmlns="http://www.w3.org/2000/svg" width="1478" height="592" version="1.1" xmlns:xlink="http://www.w3.org/1999/xlink" viewBox="0 0 1478 592">
  <!-- Generator: Adobe Illustrator 30.1.0, SVG Export Plug-In . SVG Version: 2.1.1 Build 136)  -->
  <defs>
    <style>
      .st0 {
        fill: #e7e5d2;
      }

      .st1 {
        fill: #2c2b28;
      }

      .st2 {
        fill: #fff;
      }

      .st3 {
        fill: url(#linear-gradient1);
      }

      .st4 {
        fill: #5e6e2c;
      }

      .st5 {
        fill: #a77347;
      }

      .st6 {
        fill: #7a2423;
      }

      .st7 {
        fill: #232323;
      }

      .st8 {
        fill: #f8f7f1;
      }

      .st9 {
        fill: url(#linear-gradient);
      }

      .st10 {
        fill: #e7e2d4;
      }
    </style>
    <linearGradient id="linear-gradient" x1="110.6286011" y1="149.9912646" x2="360.3974609" y2="149.9912646" gradientUnits="userSpaceOnUse">
      <stop offset="0" stop-color="#bb8b5b"/>
      <stop offset=".1854305" stop-color="#ca9a6d"/>
      <stop offset=".2194699" stop-color="#c49467"/>
      <stop offset=".3483298" stop-color="#b38256"/>
      <stop offset=".4871308" stop-color="#a9784d"/>
      <stop offset=".6523179" stop-color="#a6754a"/>
    </linearGradient>
    <linearGradient id="linear-gradient1" x1="138.888916" y1="205.6997681" x2="349.1807508" y2="205.6997681" gradientUnits="userSpaceOnUse">
      <stop offset="0" stop-color="#efe3be"/>
      <stop offset="1" stop-color="#e6d49b"/>
    </linearGradient>
  </defs>
  <g>
    <g>
      <rect class="st6" x="180.2678697" y="294.7777778" width="179.5555556" height="230.6666667" rx="26.3703704" ry="26.3703704"/>
      <path class="st6" d="M333.453125,528.4443359h-126.8149414c-16.1948242,0-29.3701172-13.1757812-29.3701172-29.3701172v-177.9257812c0-16.1953125,13.175293-29.3706055,29.3701172-29.3706055h126.8149414c16.1948242,0,29.3701172,13.175293,29.3701172,29.3706055v177.9257812c0,16.1943359-13.175293,29.3701172-29.3701172,29.3701172ZM206.6381836,297.7773438c-12.8862305,0-23.3701172,10.484375-23.3701172,23.3710938v177.9257812c0,12.8867188,10.4838867,23.3701172,23.3701172,23.3701172h126.8149414c12.8862305,0,23.3701172-10.4833984,23.3701172-23.3701172v-177.9257812c0-12.8867188-10.4838867-23.3710938-23.3701172-23.3710938h-126.8149414Z"/>
    </g>
    <g>
      <rect class="st0" x="168.2222222" y="294.7777778" width="179.5555556" height="230.6666667" rx="26.3703704" ry="26.3703704"/>
      <path class="st6" d="M321.4072266,528.4443359h-126.8144531c-16.1948242,0-29.3706055-13.1757812-29.3706055-29.3701172v-177.9257812c0-16.1953125,13.1757812-29.3706055,29.3706055-29.3706055h126.8144531c16.1948242,0,29.3706055,13.175293,29.3706055,29.3706055v177.9257812c0,16.1943359-13.1757812,29.3701172-29.3706055,29.3701172ZM194.5927734,297.7773438c-12.8867188,0-23.3706055,10.484375-23.3706055,23.3710938v177.9257812c0,12.8867188,10.4838867,23.3701172,23.3706055,23.3701172h126.8144531c12.8867188,0,23.3706055-10.4833984,23.3706055-23.3701172v-177.9257812c0-12.8867188-10.4838867-23.3710938-23.3706055-23.3710938h-126.8144531Z"/>
    </g>
    <g>
      <rect class="st8" x="145.7777778" y="294.7777778" width="179.5555556" height="230.6666667" rx="26.3703704" ry="26.3703704"/>
      <path class="st1" d="M298.9628906,528.4443359h-126.8149414c-16.1948242,0-29.3701172-13.1757812-29.3701172-29.3701172v-177.9257812c0-16.1953125,13.175293-29.3706055,29.3701172-29.3706055h126.8149414c16.1948242,0,29.3706055,13.175293,29.3706055,29.3706055v177.9257812c0,16.1943359-13.1757812,29.3701172-29.3706055,29.3701172ZM172.1479492,297.7773438c-12.8862305,0-23.3701172,10.484375-23.3701172,23.3710938v177.9257812c0,12.8867188,10.4838867,23.3701172,23.3701172,23.3701172h126.8149414c12.8867188,0,23.3706055-10.4833984,23.3706055-23.3701172v-177.9257812c0-12.8867188-10.4838867-23.3710938-23.3706055-23.3710938h-126.8149414Z"/>
    </g>
    <g>
      <path class="st4" d="M172.2222222,385.6666667s47.1111111,2.4444444,49.3333333,21.7777778c-14.8888889-.2222222-27.3333333-6.4444444-49.3333333-21.7777778Z"/>
      <path class="st4" d="M165.7777778,432.5555556c18.4444444-14,33.3333333-25.037037,51.8518519-21.4814815-11.2592593,8.5925926-11.7037037,13.3333333-51.8518519,21.4814815Z"/>
      <path class="st4" d="M190.0740741,456.2592593c9.1851852-19.1111111,17.6296296-34.0740741,28.2962963-41.6296296-.4444444,17.7777778-10.0740741,28.4444444-28.2962963,41.6296296Z"/>
      <path class="st4" d="M250.2222222,370.037037c11.5555556-11.7037037,18.962963-14.8148148,31.5555556-14.8148148s27.5555556,1.4814815,27.5555556,1.4814815c-16.2962963,4-30.0740741,11.4074074-59.1111111,13.3333333Z"/>
      <path class="st4" d="M258.3703704,373.8888889c13.1851852-.1481481,34.7407407,12.8888889,53.6296296,35.5555556-23.5555556-9.3333333-40.8148148-20.4444444-53.6296296-35.5555556Z"/>
      <path class="st4" d="M254.8148148,374.6296296c1.037037,7.5555556,9.9259259,25.7777778,26.2222222,41.1851852-7.4074074-20.2962963-16.1481481-33.037037-26.2222222-41.1851852Z"/>
      <path class="st4" d="M223.6666667,340.4444444c8.7777778,1.2222222,20.5555556.5555556,20.5555556.5555556l.3333333,70.1111111s-12.1111111,1.3333333-18.6666667-2.7777778c-.4444444-19.2222222-2.2222222-67.8888889-2.2222222-67.8888889Z"/>
      <path class="st4" d="M224.2962963,415c7.7037037,2.7407407,18.1481481,2.6666667,23.2592593,2.2222222s4.8888889,3.4016006,0,4.2563558-18.3888889.4658664-22.2777778-1.5896892-.9814815-4.8888889-.9814815-4.8888889Z"/>
      <path class="st4" d="M225.2222222,424.3333333s10.4444444,1.4444444,19.3333333.6666667c-.4444444,13.2222222-1.1111111,67.6666667-1.1111111,70.6666667s2.3333333,5.1111111,4.5555556,6.3333333.8888889,3.2222222-3,3.6666667-14.6666667,1.2222222-19.7777778,1.2222222-6-2.6666667-4-4.5555556,2.7777778-5.4444444,3.1111111-9.5555556,2.7777778-36.6666667.8888889-68.4444444Z"/>
      <path class="st4" d="M214.6666667,325.1111111c4.2222222.3333333,11.4444444,2.8888889,14.8888889,4.3333333s8.6666667,1.4444444,13.8888889,0,15.4444444-1.6666667,18.8888889-.3333333c-9.6666667,2.2222222-15.1111111,5.5555556-17.7777778,6.7777778s-4.4444444,1.6666667-10.3333333,1.5555556-9.6666667-.4444444-12.6666667-3.2222222-6.8888889-9.1111111-6.8888889-9.1111111Z"/>
    </g>
  </g>
  <g>
    <g>
      <path class="st9" d="M133.222229,231.444458l5.666687,5.777771-1-3.666687,1,3.666687c74.9368286-11.0076904,133.5386963-46.4968872,135.213562-90.6104736-10.0921021-5.1661987-19.8000488-12.4912109-30.6950684-21.463623,12.1481323.1481934,25.1851807-4,40.1481323-9.1851807,14.9630127-5.1851807,32.2963257-2.8148193,42.222229,2.9629517,8.4177246,4.8998413,18.2279053,7.2348633,29.9036865,7.6530151.4974976-1.2263184.9320679-2.4259033,1.2540894-3.5530396l1.5200195.4003906,1.9418945-15.3789062-1.4077148.1289062c-1.3769531-15.5336914-9.4746094-29.0463867-21.730957-36.2197266-18.2260742-10.7841797-44.2045898-12.2226562-64.6420898-3.5791016-19.1083984,8.0107422-34.9663086,25.0141602-44.6523438,47.8779297l.012207.0048828c-.0756836.1469727-.1708984.3632812-.3085938.6821289l-.7416992.3208008c-25.2241211,10.4584961-46.6806641,28.8510742-62.5576172,43.7089844-8.9472656,8.496582-17.5288086,17.3583984-25.5068359,26.3393555l-.8598633.9682617,1.2875977-.1391602c2.4990234-.2695312,5.0341797-.9399414,7.4858398-1.5883789.7661133-.203125,1.5180664-.4018555,2.2670898-.5874023,15.4956055-4.5327148,30.6166992-11.0429688,44.6425781-17.4003906.9604492-.4204102,1.71875.0761719,2.0439453.7514648.3227539.6704102.2294922,1.5678711-.6943359,2.0556641-10.7304688,5.2973633-20.3564453,9.6635742-29.4204102,13.3452148l-2.2026367.8579102c-8.1225586,3.1689453-16.5214844,6.4458008-25.3012695,7.5532227-1.3295898.1015625-2.5424805.1650391-3.9013672-.0927734l-.2851562-.0541992-.1884766.2207031c-2.7553711,3.2250977-5.4433594,6.472168-7.987793,9.6503906l-.5615234.7011719.8920898.1079102c5.0014648.6010742,10.1572266-.0068359,15.1420898-.5957031l1.8193359-.2133789c13.2163086-1.8310547,26.9799805-5.3842773,42.0791016-10.862793,6.6503906-2.4589844,13.4804688-5.2539062,20.3017578-8.3076172.4223633-.1904297.8964844-.206543,1.3320312-.0410156s.7797852.4902344.9697266.9150391c.362793.8105469.0385742,1.7885742-.7363281,2.2260742-13.3349609,7.4584961-27.1616211,13.3388672-41.0913086,17.4765625-13.0351562,3.7358398-26.9985352,6.9575195-40.7529297,5.253418-1.230957-.1918945-2.3569336-.4838867-3.347168-.8681641l-.3588867-.1391602-.2260742.3115234c-1.7143555,2.3569336-2.9135742,4.277832-3.7866211,6.0712891-.2368164.5678711-.3730469,1.1362305-.3530273,1.5117188.0200195.1855469.0375977.3461914.2021484.5151367l.0703125.081543c1.3188477,1.2944336,4.3959961,1.90625,7.1782227,2.378418,15.7573242,2.6259766,31.7744141-.2709961,46.8320312-3.465332,10.1455078-2.2368164,19.2202148-4.5683594,27.7416992-7.1269531,23.8388672-7.1665039,41.5058594-14.9770508,56.4267578-25.0146484-11.0366211,10.7314453-25.574707,19.6113281-45.2617188,27.6992188-18.21875,7.4360352-37.3740234,12.1953125-56.9326172,14.1450195-6.2416992.6064453-12.9750977,1.0908203-19.8852539.534668-.8203125-.1015625-1.7080078-.1958008-2.6411133-.2949219-5.2548828-.5576172-11.7944336-1.2519531-15.8266602-4.1733398l-.2734375-.1982422-.2861328.1796875c-1.2606201.7926636-2.5222778,1.5545044-3.7854614,2.3043823,3.2606812,4.4161987,9.8395386,7.6465454,22.5936279,7.480896Z"/>
      <path class="st5" d="M133.222229,231.444458c-12.7540894.1656494-19.3329468-3.0646973-22.5936279-7.480896-5.8078003,3.4475708-11.6665649,6.5082397-17.8058472,9.7078247-1.8896484.9848633-3.784668,1.9726562-5.6811523,2.9741211-7.3984375,3.8334961-14.9790039,7.628418-22.3105469,11.2983398-7.3930664,3.7006836-15.0375977,7.527832-22.5,11.3969727l-1.7958984.9755859c-1.1665039.5957031-3.2709961,1.8339844-4.2753906,3.4545898-.7167969,1.284668-.7670898,2.4116211-.1494141,3.3500977,1.6469727,2.5029297,7.5258789,2.5043945,9.453125,2.3056641,5.4941406-.5253906,10.5-2.1459961,15.800293-3.8618164,1.8129883-.5869141,3.6679688-1.1870117,5.5498047-1.7407227-4.9394531,3.4887695-10.6435547,6.0053711-16.6459961,7.328125l-.3852539.0849609-.0073242.394043c-.0087891.4794922.1230469.8481445.3916016,1.0957031.4482422.4121094,1.3398438.6923828,2.7133789.6923828,1.9467773,0,4.8603516-.5634766,8.8466797-2.1137695,10.0820312-3.9204102,71.6728516-27.2495117,78.753418-29.9306641l.796875-.3017578.668457.5307617c.0115356.0091553.0784912.06073.1743774.1334229l-3.3308716-4.5151978-5.666687-5.777771Z"/>
      <path class="st3" d="M293.6296387,153.5925903c-6.9044189-1.4147949-13.2888794-3.7874146-19.5271606-6.980835-1.6748657,44.1135864-60.2767334,79.6027832-135.213562,90.6104736l3.3308716,4.5151978c2.5180664,1.9088745,34.0053101,24.8739014,88.8915405,24.8739014,37.730957,0,73.7592773-16.3256836,96.3754883-43.6704102,17.9443359-21.6962891,25.1083984-47.8789062,20.1723633-73.7246094-.279541-1.463501-.3275146-2.9538574-.1709595-4.4281006-20.3672485,11.2702637-40.0863037,11.6265869-53.8585815,8.8043823Z"/>
      <path class="st10" d="M325.777771,118.9259033c-9.9259033-5.777771-27.2592163-8.1481323-42.222229-2.9629517-14.9629517,5.1851807-28,9.333374-40.1481323,9.1851807,10.8950195,8.9724121,20.6029663,16.2974243,30.6950684,21.463623,6.2382812,3.1934204,12.6227417,5.56604,19.5271606,6.980835,13.7722778,2.8222046,33.491333,2.4658813,53.8585815-8.8043823.2369995-2.2315063.9547729-4.4249268,2.144104-6.4234619,1.9886475-3.3425293,4.4034424-7.7293091,6.0491333-11.7858276-11.6757812-.4181519-21.4859619-2.7531738-29.9036865-7.6530151Z"/>
    </g>
    <path class="st1" d="M362.1331787,108.3914185c-.6990356-7.7644043-2.741333-15.5588379-6.6754761-22.4641113-15.6038208-27.5906982-57.1582031-32.4576416-84.3304443-21.1035156-21.59198,8.8790894-37.4697876,27.8604736-46.7244263,48.8614502-35.7470093,15.6573486-64.3901367,43.4008789-90.4664917,71.7243042-5.416687,6.079834-10.7365723,12.2531738-15.7019653,18.7526245-2.8110962,4.112915-8.3647461,9.3847656-6.1782227,14.7738647-8.0067139,4.7072144-19.0611572,10.1412354-26.7453613,14.1367188-10.3886719,5.3647582-34.7761841,17.5969849-44.6920776,23.0999756-3.4642944,1.8890991-7.5396118,4.0881958-8.2709961,8.4476318-.8406372,7.1434937,8.2079468,8.5914307,13.487854,7.8153076.1943359-.0230103.3851929-.0636597.5791016-.0891113.1780396,1.4754639.9202881,2.4390259,1.4822998,2.9561768,1.171875,1.0776367,2.8896484,1.6152344,5.1035156,1.6152344,2.6738281-.0004883,6.0703125-.7851562,10.0952148-2.3505859,9.8164062-3.8173828,69.0878906-26.2695312,77.6889648-29.5273438,4.2674561,3.1377563,22.6723633,15.5540771,53.9833374,21.65271,5.7892456,6.3723145,19.157959,22.0109253,19.157959,22.0109253-1.4815063,2.5185547-.1481934,5.4815063,3.4074097,8.7407837,3.555542,3.2592163,5.9259033,7.8518677,8,13.4814453,2.0740356,5.6296387,4.5925903,5.6296387,4.7407227,0,.1481323-5.6295776-.888916-10.8148193-2.9629517-13.4814453,6.222229,2.0740356,10.111084,8.333313,11.666626,12.888855,1.555603,4.555603,3.444458,4.111145,3.444458-1.777771,0-5.888855-5.175354-15.1984253-18-19-6.7334595-6.4641724-18.4684448-17.6397705-22.7276001-21.6940308,8.9483032,1.390686,18.8173828,2.2498169,29.6166992,2.2498169,7.0951538,0,14.1310425-.5684814,21.0367432-1.6607666,8.9788818,8.3875122,24.6296997,19.2161255,24.6296997,19.2161255-1.111084,4.444397,3,8.111084,5.111145,9.888855,2.111084,1.777771,5.444458,5,5.888855,8.777771.444458,3.777771,4.333374,4.555603,4.333374-1.111084s-2.666687-10.222229-2.666687-10.222229c0,0,6.1851807.666687,8.555542,3.4815063s2.666687,4.5925903,2.888916,7.555542,3.9259033,3.4074097,3.6296387-2.8148193c-.2963257-6.222229,4.9629517-16.888916-20.8148193-17.6296387-10.3284302-6.9685059-22.2210693-15.6068726-25.7642212-18.1941528,28.5453491-5.802002,54.428833-20.6863403,72.2445679-42.2270508,18.621582-22.5141602,26.0483398-49.722168,20.9125977-76.6113281-.5415039-2.8374023.0063477-5.8227539,1.543457-8.4057617,2.7915039-4.6918945,6.4125977-11.4013672,7.8125-16.7192383l-1.446167-.3807983,1.8366699-14.5452271c.5932617-.0540771,1.2900391-.1176147,1.2900391-.1176147ZM358.0309448,122.7973633l-1.4464722-.3808594c-1.2817383,4.8691406-4.7216797,11.2211914-7.3818359,15.6923828-2.0375977,3.4243164-2.7602539,7.4023438-2.034668,11.2011719,4.9077148,25.6972656-2.21875,51.7329102-20.0664062,73.3120117-22.5224609,27.2314453-58.4067383,43.4892578-95.9902344,43.4892578-56.7607422,0-88.4414062-24.6494141-88.7543945-24.8984375l-.8911133-.7080078-1.0629883.4023438c-.6806641.2578125-68.2045898,25.8286133-78.7573242,29.9326172-7.0424805,2.7382812-10.2524414,2.2436523-11.0405273,1.519043-.1663208-.1531372-.236084-.4000244-.2302246-.7180176,6.9129028-1.5235596,13.4240723-4.581604,18.9586182-9.0111694-8.1409302,2.1353149-15.5727539,5.510437-23.8175049,6.2995605-3.2489624.3327026-11.4475708-.2038574-8.8195801-4.9144287.8320312-1.342041,2.5825195-2.4955444,4.0665894-3.2530518l1.8067627-.9815674c14.8394775-7.6942749,29.9373779-14.9882202,44.8018799-22.6906738,9.2589111-4.8894653,18.4099121-9.411377,27.3087769-15.006897,4.8745117,3.5316162,13.2730103,3.8883667,18.6997681,4.5596313,6.7495117.5432129,13.3401489.1132812,19.9949341-.5335693,19.6432495-1.9578247,38.838501-6.7365112,57.0732422-14.1795044,18.0246582-7.4050293,35.8139648-17.1140747,49.1074219-31.5957642-18.2801514,13.3046265-39.1903076,21.5318604-60.6054077,27.9694214-9.1321411,2.7418823-18.399353,5.065979-27.7056274,7.1174316-15.2526855,3.2357788-31.1382446,6.045105-46.642334,3.4606934-2.1403809-.3633423-5.6156006-.9717407-6.9101562-2.2424927-.0969238-.1331177-.0986938-.0500488-.1253052-.2931519-.0118408-.2317505.0894775-.718811.3174438-1.2658691.9864502-2.0240479,2.3104248-4.0185547,3.7293701-5.9694824,1.1217041.4346924,2.3081665.7177124,3.4507446.895752,13.8397217,1.7142944,27.7889404-1.4899902,40.9677124-5.2668457,14.3555298-4.2644653,28.1582031-10.2277832,41.197998-17.5206299.9946289-.5615845,1.4244995-1.8034668.9485474-2.8668213-.5057373-1.1307983-1.8356934-1.635376-2.9642944-1.1252441-6.6821289,2.9910278-13.4375,5.7679443-20.2692871,8.2942505-13.6040039,4.9359741-27.6782837,8.8554077-41.9744263,10.8364258-5.5700073.6394653-11.2905884,1.475708-16.8327026.8078613,2.6049194-3.253418,5.2667847-6.4654541,7.9779053-9.6384888,1.3913574.2637939,2.6431885.2061157,4.0324097.1004028,9.6569824-1.2172241,18.6990967-4.9730225,27.6468506-8.4437256,10.0214233-4.0701294,19.8049927-8.5960083,29.4606934-13.3630371,2.3899536-1.2613525.6559448-4.7729492-1.770874-3.7137451-14.5368042,6.5886841-29.2923584,12.90625-44.5823975,17.3787231-3.0164185.7458496-6.416687,1.8082275-9.666687,2.1586304,8.1122437-9.1323242,16.6362305-17.9130859,25.4770508-26.3087158,18.5350952-17.3448486,38.8525391-33.8447266,62.4047241-43.6095581l.9307861-.40271s.3760376-.8725586.3761597-.8724976c8.6278687-20.364563,23.6508789-38.9186401,44.385498-47.6117554,19.7723389-8.3615112,45.6206055-7.440979,64.194397,3.5483398,12.8988037,7.5484009,20.3651123,21.6126099,21.5290527,36.3330688,0,0,.6967163-.0635376,1.289917-.1176147l-1.7924805,14.1953125Z"/>
    <g>
      <path class="st1" d="M341.2665405,119.5637207c-.3502808,2.4282227.520874,4.6480713,2.8446045,6.2140503,5.8796997,3.9624023,15.0161947.8547295,19.2221883-.5555488,10.8518066-3.6386108,20.925944-5.7777642,33.259257-7.3333062-11.9873047-3.9060059-39.8897095-2.7904053-55.3260498,1.6748047Z"/>
      <path class="st7" d="M347.4954224,110.6790771c-3.6246948,2.7581177-5.8086548,5.9718018-6.2288818,8.8846436,15.4363403-4.46521,43.3387451-5.5808105,55.3260498-1.6748047-5.0860596-4.6022339-19.9768066-11.1386108-28.7036743-13.111145-8.111145-1.833313-13.222229.444458-20.3934937,5.9013062Z"/>
    </g>
    <circle class="st1" cx="320.7407407" cy="110.3333333" r="11.1111111"/>
    <circle class="st2" cx="321.4074074" cy="105.8148148" r="2.2962963"/>
  </g>
  <g>
    <polygon class="st6" points="449.111084 474.777771 427.2592773 423.5184937 403.8518677 423.5184937 403.8518677 528.111084 426.8148193 528.111084 426.8148193 474.9259033 446.0740967 511.5184937 450.8148193 511.5184937 470.666687 474.9259033 470.666687 528.111084 494.3703613 528.111084 494.3703613 423.5184937 473.6296387 423.5184937 449.111084 474.777771"/>
    <path class="st6" d="M539.111084,423.5184937l-33.111084,104.5925903h22.666687l5.2902222-19.444397h31.3632813l5.3464966,19.444397h23.555542l-32.666687-104.5925903h-22.444458ZM539.0355225,490l10.5200195-38.666687,10.631955,38.666687h-21.1519746Z"/>
    <polygon class="st6" points="659.777771 466.0370483 628.5925903 466.0370483 628.5925903 423.5184937 605.9259033 423.5184937 605.9259033 528.111084 628.5925903 528.111084 628.5925903 485.5925903 659.777771 485.5925903 659.777771 528.111084 682.444458 528.111084 682.444458 423.5184937 659.777771 423.5184937 659.777771 466.0370483"/>
    <polygon class="st6" points="1209.555542 423.5184937 1186.888855 423.5184937 1186.888855 528.111084 1206.8148193 528.111084 1209.555542 528.111084 1250.0740967 528.111084 1250.0740967 508.4074097 1209.555542 508.4074097 1209.555542 423.5184937"/>
    <polygon class="st6" points="923.8518677 482.0515747 890.8148193 423.5184937 869.6296387 423.5184937 869.6296387 528.111084 892.2962646 528.111084 892.2962646 469.6878662 925.9259033 528.111084 946.5184937 528.111084 946.5184937 423.5184937 923.8518677 423.5184937 923.8518677 482.0515747"/>
    <path class="st6" d="M730.222229,498.1851807c0,5.7037354-2.777771,11.7037354-9.666687,11.7037354-6.888855,0-10.1851807-3.9259644-11.8148193-6.9630127l-16,10.3704224s6.666687,16.444397,28.1481934,16.444397c27.111084,0,33.0369873-20.888855,33.0369873-35.555542v-70.666687h-23.7036743v74.666687Z"/>
    <path class="st6" d="M811.777771,421.888916c-20.989563,0-43.333313,13.8128662-43.333313,54.2962646,0,40.4834595,22.34375,54.2963257,43.333313,54.2963257s43.333313-13.8128662,43.333313-54.2963257c0-40.4833984-22.34375-54.2962646-43.333313-54.2962646ZM829.9837646,476.1851807c0,23.4378052-5.1157227,35.1934204-18.2059937,35.1934204-13.09028,0-18.2060547-11.7556152-18.2060547-35.1934204h.000061c0-23.4377441,5.1157136-35.1934204,18.2059937-35.1934204,13.090271,0,18.2060547,11.7556763,18.2060547,35.1934204h-.000061Z"/>
    <path class="st6" d="M1004.3703613,440.9917603c8.6720581,0,14.2963257,5.3415527,17.333313,15.4897461l20.5110474-8.0192261c-8.3258057-20.4622803-22.7324219-26.5733643-37.8443604-26.5733643-20.989563,0-43.333313,13.8128662-43.333313,54.2962646,0,31.1851807,16.0740356,53.4815063,44.7407227,53.4815063s36.4369507-17.6296387,36.4369507-30.3703613v-27.2592773h-37.918396v17.7036743h15.6295776v15.7037354s-5.4814453,4.5184937-13.555542,4.5184937c-17.111084,0-20.7407227-16.0740356-20.7407227-33.777771,0-23.4377441,5.6504517-35.1934204,18.7407227-35.1934204Z"/>
    <path class="st6" d="M1136.7030029,440.9917603c8.6720581,0,12.9080811,4.8415527,15.7414551,13.4897461l20.444458-6.8148193c-6.888916-18.555603-21.0739136-25.777771-36.1859131-25.777771-20.989563,0-43.333313,13.8128662-43.333313,54.2962646,0,31.1851807,16.0740967,53.4815063,44.7407837,53.4815063,28.6289673,0,34.7784424-26.444458,34.7784424-26.444458l-20.1481934-5.4815063s-4.1481323,13.6296387-16.2962646,13.6296387c-10.222229,0-18.4821777-9.4814453-18.4821777-35.1851807,0-23.4377441,5.6504517-35.1934204,18.7407227-35.1934204Z"/>
    <path class="st6" d="M1313.8019409,493.1481323c0,10.222229-3.6634521,17.333374-14.6538086,17.333374-10.9902954,0-14.6537476-7.111145-14.6537476-17.333374v-69.6296387h-22.4202881v68.888916c0,25.1851807,14.6537476,37.333313,37.0740356,37.333313s37.0740967-12.1481323,37.0740967-37.333313v-68.888916h-22.4202881v69.6296387Z"/>
    <path class="st6" d="M1410.666687,472.555542s13.444397-5,13.444397-22-13-27.0370483-33.222168-27.0370483h-35.777832v104.5925903h37.333374c19.222229,0,34.777771-11.555542,34.777771-30.555542s-16.555542-25-16.555542-25ZM1388.555542,441.111084c6.9956055,0,12.666687,5.6710815,12.666687,12.666687s-5.6710815,12.666687-12.666687,12.666687h-10.777771v-25.333374h10.777771ZM1390.611145,509.444458h-12.833374v-26.777771h12.833374c7.3944702,0,13.388855,5.9943848,13.388855,13.388855s-5.9943848,13.388916-13.388855,13.388916Z"/>
  </g>
  <g>
    <g>
      <rect class="st5" x="551.1851807" y="189.333313" width="46.5370483" height="208.333374" rx="9.777771" ry="9.777771"/>
      <path class="st7" d="M587.9443359,400.4169922h-26.9814453c-6.9077148,0-12.527832-5.6201172-12.527832-12.5283203v-188.7773438c0-6.9077148,5.6201172-12.527832,12.527832-12.527832h26.9814453c6.9077148,0,12.527832,5.6201172,12.527832,12.527832v188.7773438c0,6.9082031-5.6201172,12.5283203-12.527832,12.5283203ZM560.9628906,192.0834961c-3.875,0-7.027832,3.152832-7.027832,7.027832v188.7773438c0,3.875,3.152832,7.0283203,7.027832,7.0283203h26.9814453c3.875,0,7.027832-3.1533203,7.027832-7.0283203v-188.7773438c0-3.875-3.152832-7.027832-7.027832-7.027832h-26.9814453Z"/>
    </g>
    <g>
      <path class="st5" d="M509.7828369,288.3180542s22.5134888-11.1699219,22.5134888-42.8735962c0-47.111145-36.1481934-56.111145-63.8518677-56.111145h-53.7036743c-5.4001465,0-9.777832,4.3776855-9.777832,9.777771v188.777832c0,5.4000854,4.3776855,9.777771,9.777832,9.777771h50.444397c42.8148193,0,74.0740967-21.111145,74.0740967-61.7037354s-29.4764404-47.6448975-29.4764404-47.6448975ZM485.333313,249.7407227v.000061c0,11.7001953-6.225647,21.1851196-17.9259033,21.1851196h-17.1851807v-42.3703613h17.1851807c11.7002563,0,17.9259033,9.4849243,17.9259033,21.1851807ZM491.7036743,333.2963257c0,13.7457275-7.8838501,24.888855-21.6295776,24.888855h-19.8518677v-49.777771h19.8518677c13.7457275,0,21.6295776,11.1431274,21.6295776,24.888855v.000061Z"/>
      <path class="st7" d="M465.1850586,400.4169922h-50.4443359c-6.9077148,0-12.527832-5.6201172-12.527832-12.5283203v-188.7773438c0-6.9077148,5.6201172-12.527832,12.527832-12.527832h53.7036133c18.0322266,0,32.7739258,3.6450195,43.8154297,10.8344727,15.1201172,9.8447266,22.7866211,26.0029297,22.7866211,48.0263672,0,24.1108398-12.2875977,36.9199219-19.3051758,42.2685547,9.0019531,4.3666992,26.2680664,16.8388672,26.2680664,48.25,0,39.7568359-29.4375,64.4541016-76.8242188,64.4541016ZM414.7407227,192.0834961c-3.875,0-7.027832,3.152832-7.027832,7.027832v188.7773438c0,3.875,3.152832,7.0283203,7.027832,7.0283203h50.4443359c43.9941406,0,71.3242188-22.5898438,71.3242188-58.9541016,0-37.7958984-26.2573242-44.6972656-27.375-44.9726562l-7.2924805-1.7958984,6.7119141-3.3364258c.8666992-.4365234,20.9926758-10.9194336,20.9926758-40.4135742,0-44.1030273-33.2275391-53.3608398-61.1020508-53.3608398h-53.7036133ZM470.0742188,360.9355469h-22.6020508v-55.2783203h22.6020508c14.3540039,0,24.3793945,11.3652344,24.3793945,27.6386719s-10.0253906,27.6396484-24.3793945,27.6396484ZM452.972168,355.4355469h17.1020508c13.0415039,0,18.8793945-11.1191406,18.8793945-22.1396484,0-11.0195312-5.8378906-22.1386719-18.8793945-22.1386719h-17.1020508v44.2783203ZM467.4072266,273.6757812h-19.9350586v-47.8701172h19.9350586c12.3671875,0,20.6762695,9.6186523,20.6762695,23.9350586s-8.309082,23.9350586-20.6762695,23.9350586ZM452.972168,268.1757812h14.4350586c11.2016602,0,15.1762695-9.9306641,15.1762695-18.4350586s-3.9746094-18.4350586-15.1762695-18.4350586h-14.4350586v36.8701172Z"/>
    </g>
    <g>
      <path class="st5" d="M1077.1314851,288.3180542s22.5134888-11.1699219,22.5134888-42.8735962c0-47.111145-36.1481934-56.111145-63.8518677-56.111145h-53.7036743c-5.4001465,0-9.777832,4.3776855-9.777832,9.777771v188.777832c0,5.4000854,4.3776855,9.777771,9.777832,9.777771h50.444397c42.8148193,0,74.0740967-21.111145,74.0740967-61.7037354s-29.4764404-47.6448975-29.4764404-47.6448975ZM1052.6819612,249.7407227v.000061c0,11.7001953-6.225647,21.1851196-17.9259033,21.1851196h-17.1851807v-42.3703613h17.1851807c11.7002563,0,17.9259033,9.4849243,17.9259033,21.1851807ZM1059.0523225,333.2963257c0,13.7457275-7.8838501,24.888855-21.6295776,24.888855h-19.8518677v-49.777771h19.8518677c13.7457275,0,21.6295776,11.1431274,21.6295776,24.888855v.000061Z"/>
      <path class="st7" d="M1032.5341797,400.4169922h-50.4443359c-6.9082031,0-12.5283203-5.6201172-12.5283203-12.5283203v-188.7773438c0-6.9077148,5.6201172-12.527832,12.5283203-12.527832h53.703125c18.0322266,0,32.7744141,3.6450195,43.8154297,10.8344727,15.1201172,9.8447266,22.7861328,26.0029297,22.7861328,48.0263672,0,24.1108398-12.2871094,36.9194336-19.3046875,42.2685547,9.0029297,4.3666992,26.2685547,16.8388672,26.2685547,48.25,0,39.7568359-29.4375,64.4541016-76.8242188,64.4541016ZM982.0898438,192.0834961c-3.875,0-7.0283203,3.152832-7.0283203,7.027832v188.7773438c0,3.875,3.1533203,7.0283203,7.0283203,7.0283203h50.4443359c43.9941406,0,71.3242188-22.5898438,71.3242188-58.9541016,0-37.7958984-26.2578125-44.6972656-27.375-44.9726562l-7.2919922-1.7958984,6.7119141-3.3364258c.8662109-.4365234,20.9912109-10.9194336,20.9912109-40.4135742,0-44.1030273-33.2275391-53.3608398-61.1015625-53.3608398h-53.703125ZM1037.4228516,360.9355469h-22.6015625v-55.2783203h22.6015625c14.3544922,0,24.3798828,11.3652344,24.3798828,27.6386719s-10.0253906,27.6396484-24.3798828,27.6396484ZM1020.3212891,355.4355469h17.1015625c13.0419922,0,18.8798828-11.1191406,18.8798828-22.1396484,0-11.0195312-5.8378906-22.1386719-18.8798828-22.1386719h-17.1015625v44.2783203ZM1034.7558594,273.6757812h-19.9345703v-47.8701172h19.9345703c12.3671875,0,20.6757812,9.6186523,20.6757812,23.9350586s-8.3085938,23.9350586-20.6757812,23.9350586ZM1020.3212891,268.1757812h14.4345703c11.2011719,0,15.1757812-9.9306641,15.1757812-18.4350586s-3.9746094-18.4350586-15.1757812-18.4350586h-14.4345703v36.8701172Z"/>
    </g>
    <g>
      <path class="st5" d="M711.8518677,311.0740967s32.444458-12,32.444458-53.9259644c0-41.9259033-19.7037354-67.8148193-74.8148193-67.8148193h-44.9074097c-5.4001465,0-9.777771,4.3776855-9.777771,9.777771v188.777832c0,5.4000854,4.3776245,9.777771,9.777771,9.777771h25.944397c5.4001465,0,9.777832-4.3776855,9.777832-9.777771v-65.111145h8.5925903l29.7139282,69.5390015c1.3865967,3.2449341,4.5751343,5.3499146,8.1038818,5.3499146h35.9140625c4.4745483,0,7.4351196-4.6467285,5.5443726-8.7022095l-36.3132935-77.8903809ZM696.9629517,256.1759644c0,15.4588623-12.5318604,27.9907227-27.9907227,27.9907227h-8.6759033v-55.9815063h8.6759033c15.4588623,0,27.9907227,12.5318604,27.9907227,27.9907227v.000061Z"/>
      <path class="st7" d="M742.6210938,400.4169922h-35.9145508c-4.637207,0-8.8105469-2.7558594-10.6323242-7.0205078l-29.0009766-67.8691406h-4.0268555v62.3613281c0,6.9082031-5.6201172,12.5283203-12.527832,12.5283203h-25.9443359c-6.9077148,0-12.527832-5.6201172-12.527832-12.5283203v-188.7773438c0-6.9077148,5.6201172-12.527832,12.527832-12.527832h44.9072266c52.1928711,0,77.5644531,23.0820312,77.5644531,70.5644531,0,36.046875-23.4482422,51.1323242-31.5371094,55.2612305l35.1484375,75.3935547c1.2871094,2.7607422,1.0791016,5.9423828-.5576172,8.5117188-1.6367188,2.5683594-4.4326172,4.1025391-7.4785156,4.1025391ZM657.5463867,320.0273438h13.1577148l30.4277344,71.2080078c.9550781,2.2363281,3.1435547,3.6816406,5.574707,3.6816406h35.9145508c1.1738281,0,2.2089844-.5673828,2.8398438-1.5576172s.7080078-2.1689453.2119141-3.2324219l-37.574707-80.5966797,2.7944336-1.0332031c1.2514648-.46875,30.6533203-11.9438477,30.6533203-51.3491211,0-44.3896484-22.8989258-65.0644531-72.0644531-65.0644531h-44.9072266c-3.875,0-7.027832,3.152832-7.027832,7.027832v188.7773438c0,3.875,3.152832,7.0283203,7.027832,7.0283203h25.9443359c3.875,0,7.027832-3.1533203,7.027832-7.0283203v-67.8613281ZM668.972168,286.9165039h-11.4257812v-61.4814453h11.4257812c16.9506836,0,30.7407227,13.7900391,30.7407227,30.7407227s-13.7900391,30.7407227-30.7407227,30.7407227ZM663.0463867,281.4165039h5.9257812c13.9179688,0,25.2407227-11.3227539,25.2407227-25.2407227s-11.3227539-25.2407227-25.2407227-25.2407227h-5.9257812v50.4814453Z"/>
    </g>
    <g>
      <path class="st5" d="M817.0370483,189.333313h-44.4629517c-5.4001465,0-9.777771,4.3776855-9.777771,9.777771v188.777832c0,5.4000854,4.3776245,9.777771,9.777771,9.777771h44.4629517c63.0370483,0,81.1851807-42.777771,81.1851807-79v-50.333374c0-36.222229-18.1481323-79-81.1851807-79ZM850,328.666687c0,15.555542-10.5925903,30.444397-29.7036743,30.444397h-10.9630127v-131.222168h10.9630127c19.111084,0,29.7036743,14.888855,29.7036743,30.444397v70.333374Z"/>
      <path class="st7" d="M817.0371094,400.4169922h-44.4628906c-6.9082031,0-12.5283203-5.6201172-12.5283203-12.5283203v-188.7773438c0-6.9077148,5.6201172-12.527832,12.5283203-12.527832h44.4628906c29.4599609,0,51.7871094,9.0600586,66.3623047,26.9287109,11.3320312,13.8920898,17.5732422,33.3613281,17.5732422,54.8212891v50.3334961c0,21.4599609-6.2412109,40.9287109-17.5732422,54.8212891-14.5751953,17.8681641-36.9023438,26.9287109-66.3623047,26.9287109ZM772.5742188,192.0834961c-3.875,0-7.0283203,3.152832-7.0283203,7.027832v188.7773438c0,3.875,3.1533203,7.0283203,7.0283203,7.0283203h44.4628906c72.7792969,0,78.4355469-58.3623047,78.4355469-76.25v-50.3334961c0-17.887207-5.65625-76.25-78.4355469-76.25h-44.4628906ZM820.2958984,361.8613281h-13.7128906v-136.7226562h13.7128906c21.3066406,0,32.4541016,16.6992188,32.4541016,33.1948242v70.3334961c0,16.4951172-11.1474609,33.1943359-32.4541016,33.1943359ZM812.0830078,356.3613281h8.2128906c17.6953125,0,26.9541016-13.9316406,26.9541016-27.6943359v-70.3334961c0-13.7626953-9.2587891-27.6948242-26.9541016-27.6948242h-8.2128906v125.7226562Z"/>
    </g>
    <g>
      <path class="st5" d="M1207.7754517,194.5910645c-.7827148-3.09198-3.5650635-5.2577515-6.7546387-5.2577515h-35.4703369c-3.1796875,0-5.9559937,2.1525879-6.7481079,5.2319946l-49.8910522,193.9636841c-1.2789917,4.972229,2.524292,9.7980347,7.6577759,9.7165527l29.9728394-.475769c3.7996216-.0603027,7.0523071-2.7407227,7.8378296-6.4587402l6.5286865-30.9036255h42.4111938l6.4371948,30.7830811c.7890625,3.7731934,4.1157227,6.4761963,7.97052,6.4761963h31.4634399c5.0706787,0,8.7860107-4.7731934,7.541626-9.6887817l-48.9569702-193.3868408ZM1169.3275757,320.555542l12.8946533-61.0370483,12.7637939,61.0370483h-25.6584473Z"/>
      <path class="st7" d="M1116.4394531,400.9960938c-3.2451172,0-6.2480469-1.4550781-8.2626953-4.0107422-2.0507812-2.6015625-2.7539062-5.9326172-1.9287109-9.140625l49.8916016-193.9643555c1.1044922-4.2963867,4.9746094-7.296875,9.4111328-7.296875h35.4697266c4.4541016,0,8.328125,3.015625,9.4208984,7.3330078l48.9570312,193.3862305c.8027344,3.171875.1103516,6.4716797-1.8994141,9.0527344-2.0087891,2.5810547-5.0371094,4.0615234-8.3085938,4.0615234h-31.4628906c-5.1289062,0-9.6123047-3.6435547-10.6621094-8.6640625l-5.9804688-28.5957031h-37.9472656l-6.0673828,28.7216797c-1.0576172,5.0058594-5.3691406,8.5586017-10.484375,8.640625l-29.9726562.4755859c-.0585938.0009766-.1162109.0009766-.1738281.0009766ZM1165.5507812,192.0834961c-1.9257812,0-3.6054688,1.3022461-4.0849609,3.1669922l-49.8916016,193.9633789c-.3935547,1.5322266-.0576172,3.1240234.921875,4.3662109s2.4570312,1.9775391,4.0292969,1.9150391l29.9726562-.4755859c2.5322266-.0400391,4.6669922-1.7988281,5.1914062-4.2773438l6.9892578-33.0849609h46.875l6.8945312,32.9707031c.5205078,2.4853516,2.7402344,4.2890625,5.2792969,4.2890625h31.4628906c1.5625,0,3.0087891-.7070312,3.96875-1.9404297.9599609-1.2324219,1.2910156-2.8095703.9072266-4.3242188l-48.9570312-193.387207c-.4736328-1.8730469-2.1552734-3.1816406-4.0888672-3.1816406h-35.4697266ZM1198.3710938,323.3056641h-32.4355469l16.3007812-77.15625,16.1347656,77.15625ZM1172.71875,317.8056641h18.8828125l-9.3925781-44.9179688-9.4902344,44.9179688Z"/>
    </g>
    <g>
      <path class="st5" d="M1415.821167,189.333313h-25.2790527c-3.9882812,0-7.6127319,2.3186035-9.284729,5.9395142l-33.7018433,72.9864502-33.7018433-72.9864502c-1.6719971-3.6209106-5.2964478-5.9395142-9.284729-5.9395142h-25.2789917c-4.1079712,0-7.4381104,3.3301392-7.4381104,7.4381104v194.0370483c0,4.1079712,3.3301392,7.4381104,7.4381104,7.4381104h29.7163696c4.1079712,0,7.4381104-3.3301392,7.4381104-7.4381104v-91.5862427l27.7432861,50.7306519c1.4559937,2.6622925,5.2796021,2.6622925,6.7355957,0l27.7433472-50.7306519v91.5862427c0,4.1079712,3.3301392,7.4381104,7.4381104,7.4381104h29.7163696c4.1079712,0,7.4381104-3.3301392,7.4381104-7.4381104v-194.0370483c0-4.1079712-3.3301392-7.4381104-7.4381104-7.4381104Z"/>
      <path class="st7" d="M1415.8212891,400.9960938h-29.7167969c-5.6171875,0-10.1875-4.5703125-10.1875-10.1875v-80.8261719l-22.5800781,41.2900391c-1.15625,2.1142578-3.3720703,3.4267578-5.78125,3.4267578s-4.625-1.3125-5.78125-3.4267578l-22.5800781-41.2900391v80.8261719c0,5.6171875-4.5703125,10.1875-10.1884766,10.1875h-29.7158203c-5.6181641,0-10.1884766-4.5703125-10.1884766-10.1875v-194.0371094c0-5.6176758,4.5703125-10.1879883,10.1884766-10.1879883h25.2792969c5.0429688,0,9.6669922,2.9584961,11.78125,7.5366211l31.2050781,67.5795898,31.2050781-67.5795898c2.1142578-4.578125,6.7382812-7.5366211,11.78125-7.5366211h25.2792969c5.6181641,0,10.1884766,4.5703125,10.1884766,10.1879883v194.0371094c0,5.6171875-4.5703125,10.1875-10.1884766,10.1875ZM1381.4169922,288.4628906v102.3457031c0,2.5849609,2.1025391,4.6875,4.6875,4.6875h29.7167969c2.5849609,0,4.6884766-2.1025391,4.6884766-4.6875v-194.0371094c0-2.5849609-2.1035156-4.6879883-4.6884766-4.6879883h-25.2792969c-2.9052734,0-5.5693359,1.7045898-6.7871094,4.3422852l-36.1992188,78.3930664-36.1992188-78.3930664c-1.2177734-2.6376953-3.8818359-4.3422852-6.7871094-4.3422852h-25.2792969c-2.5849609,0-4.6884766,2.1030273-4.6884766,4.6879883v194.0371094c0,2.5849609,2.1035156,4.6875,4.6884766,4.6875h29.7158203c2.5849609,0,4.6884766-2.1025391,4.6884766-4.6875v-102.3457031l32.90625,60.1708984c.2695312.4921875.7138672.5654297.9550781.5654297s.6855469-.0732422.9550781-.5654297l32.90625-60.1708984Z"/>
    </g>
  </g>
</svg>